<svg width="440" height="440" viewBox="0 0 440 440" fill="none" xmlns="http://www.w3.org/2000/svg">
<path d="M110.2 110.2H111.7C171.8 109.6 220.2 60.5 220 0.400032C159.9 0.200032 110.8 48.6 110.2 108.7V110.2C49.9999 110 0.999902 158.4 0.399902 218.5V220H1.8999C61.9999 219.3 110.4 170.3 110.2 110.2C110 170.3 158.4 219.3 218.5 220H220V218.5C219.3 158.4 170.3 110 110.2 110.2Z" fill="#00EB90"/>
<path d="M220 218.5V220H221.5C281.6 219.4 330 170.3 329.8 110.2C329.6 170.3 378 219.3 438.1 220H439.6V218.5C439 158.4 390 110 329.8 110.2C269.7 110 220.7 158.4 220 218.5Z" fill="#00EB90"/>
<path d="M328.3 110.2H329.8V108.7C329.2 48.5 280.1 0.200033 220 0.400033C219.8 60.5 268.2 109.5 328.3 110.2Z" fill="#00EB90"/>
<path d="M110.2 329.8H111.7C171.8 329.2 220.2 280.1 220 220C159.9 219.8 110.8 268.2 110.2 328.3C109.5 268.2 60.5 219.8 0.400032 220C0.200032 280.1 48.6 329.2 108.7 329.8H110.2C110 390 158.4 439 218.5 439.6H220V438.1C219.3 378 170.3 329.6 110.2 329.8Z" fill="#00EB90"/>
<path d="M329.8 328.3C329.2 268.2 280.1 219.8 220 220C219.8 280.1 268.2 329.2 328.3 329.8H329.8C269.7 329.6 220.7 378 220 438.1V439.6H221.5C281.6 439 330 390 329.8 329.8H331.3C391.4 329.2 439.8 280.1 439.6 220C379.5 219.8 330.5 268.2 329.8 328.3Z" fill="#00EB90"/>
</svg>
