<svg width="438" height="328" viewBox="0 0 438 328" fill="none" xmlns="http://www.w3.org/2000/svg">
<path d="M109.8 109.4C49.4 109.4 0.5 158.3 0.5 218.7H109.8H218.9C218.9 279.1 267.8 328 328.2 328C388.6 328 437.5 279 437.5 218.6H328.2H219.1C219.1 158.3 170.2 109.4 109.8 109.4Z" fill="#00EB90"/>
<path d="M0.5 327.9H219.1C219.1 267.5 170.2 218.6 109.8 218.6C49.5 218.6 0.5 267.6 0.5 327.9Z" fill="#00EB90"/>
<path d="M437.5 109.4H328.2H219.1C219.1 49.0001 170.2 0.100098 109.8 0.100098C49.5 0.100098 0.5 49.0001 0.5 109.4H109.8H218.9C218.9 169.8 267.8 218.7 328.2 218.7C388.6 218.7 437.5 169.7 437.5 109.4Z" fill="#00EB90"/>
<path d="M437.5 0.100098H218.9C218.9 60.5001 267.8 109.4 328.2 109.4C388.6 109.4 437.5 60.4001 437.5 0.100098Z" fill="#00EB90"/>
</svg>
